<?xml version="1.0" encoding="UTF-8"?>
<svg id="Capa_1" data-name="Capa 1" xmlns="http://www.w3.org/2000/svg" viewBox="0 0 749.71 214.77">
  <defs>
    <style>
      .cls-1 {
        fill: #fff;
      }

      .cls-2 {
        fill: #e10818;
      }

      .cls-3 {
        fill: #00b0bf;
      }

      .cls-4 {
        fill: #ffc629;
      }
    </style>
  </defs>
  <path class="cls-4" d="M371.66,107.38c0-45.42,27.06-84.64,65.91-102.38H102.38C45.84,5,0,50.84,0,107.38h0c0,56.54,45.84,102.38,102.38,102.38h335.19c-38.85-17.74-65.91-56.96-65.91-102.38Z"/>
  <g>
    <path class="cls-2" d="M347.7,125.56l-40.73-57.56c-3.25-5.06-8.2-11.04-13.95-12.48-6.68-1.7-13.26-.48-18.81,3.36-.11.08-.6.46-.8.67-.3.31-.68.72-.95,1.03-.21.23-.69.86-.69.86l-46.51,65.16c-3.71,4.87-8.65,7.46-13.79,9.28-9.08,2.54-18.23-.45-24.89-6.05-9.45-7.78-13.6-20.15-9.68-32.43,2.77-7.91,10.32-15.62,18.03-18.17,13.63-4.51,26.64,3.18,36.31,13.61l14.43-20.17s-4.61-7.19-18.72-14.6c-18.13-8.12-41.51-6.1-56.81,7.55-15.3,12.42-23.08,32.21-18.64,52.38,3.83,19.16,19.67,36.82,38.2,41.8,19.15,5.37,39.63-.56,53.98-15.12l41.69-59.04.09-.11h0c.17-.21.43-.35.72-.35s.52.13.69.32h0c11.67,13.74,22.01,29.77,32.75,44.32h0c.12.16.19.35.19.56,0,.51-.41.93-.92.93h-41.12v26.08h56.14c6.49-.82,12.89-4.9,15.88-11.29,3.74-5.99,1.25-14.69-2.1-20.52Z"/>
    <path class="cls-2" d="M120.82,85.36c.2-.3.55-.51.95-.51s.75.21.95.52l24.39,33.56c-2.45-12.36-.84-25.92,4.78-36.17.27-.5.44-.69.44-.69l-10.27-14.26s-.78-.99-1.18-1.48c-4.12-5.02-8.94-9.6-13.65-11.01-7.57-1.6-15.05.2-20.37,6.06l-43.18,59.66c-3.79,6.27-8.3,13.86-6.43,21.64.59,2.24,1.05,3.26,1.87,5.06,2.56,4.9,7.86,7.7,12.87,9.15,1.95.44,3.2.47,3.2.47h55.84v-26.08h-41.44c-.49-.02-.88-.43-.88-.93,0-.2.07-.39.18-.54h0l.25-.36,31.67-44.11h0Z"/>
  </g>
  <path class="cls-3" d="M484.15,214.77c-59.21,0-107.38-48.17-107.38-107.38S424.94,0,484.15,0h156.18c28.78,0,56.08,11.15,76.88,31.4,20.96,20.41,32.5,47.39,32.5,75.98,0,59.21-48.17,107.38-107.38,107.38h-158.18Z"/>
  <g>
    <path class="cls-1" d="M641.81,123.34c0,9.32.14,18.64-.04,27.96-.15,7.55-1.93,14.76-5.94,21.26-4.81,7.76-11.81,12.28-20.75,13.87-5.54.98-10.93.51-16.08-1.76-8.09-3.57-12.84-9.72-13.85-18.58-.78-6.83,1.12-12.87,5.56-18.09,3.12-3.67,7.06-6.31,11.42-8.3,5.27-2.38,10.83-3.61,16.56-4.14,3.73-.34,7.44-.78,11.17-1.16.6-.06.9-.28.89-.96-.03-3.53-.01-7.06-.01-10.58,0-.23.1-.54-.16-.67-.23-.11-.39.14-.56.26-3.79,2.6-7.93,4.3-12.49,4.77-11.43,1.19-22.66-4.87-26.09-17.37-1.98-7.23-.84-14.08,2.87-20.53,3.12-5.42,7.47-9.49,13.26-11.93,3.14-1.33,6.43-2.01,9.84-2.27,3-.23,5.98-.12,8.92.54,8.47,1.89,13.41,7.22,15.07,15.68.3,1.52.46,3.08.45,4.64,0,.19,0,.39,0,.58,0,8.93,0,17.86,0,26.79h-.02ZM630.72,149.01c0-.95-.02-1.9,0-2.85.01-.51-.11-.73-.71-.66-4.57.5-9.15.85-13.7,1.52-5.1.77-9.97,2.32-14.18,5.42-4.01,2.95-6.45,6.73-6.06,11.97.37,4.82,2.8,8.17,7.18,10.04,5.07,2.17,10.15,1.68,15.09-.48,5.08-2.23,8.15-6.33,10.1-11.36,1.69-4.37,2.3-8.93,2.27-13.59M631,97.88c-.02-1.4.04-2.81-.15-4.22-.55-4.09-2.87-6.63-6.91-7.44-3.48-.69-6.92-.41-10.32.5-8.14,2.19-13.39,10.64-12.27,18.39.91,6.29,5.63,10.93,11.95,11.47,6.34.54,12.76-3.02,15.7-8.67,1.64-3.15,2.22-6.52,2.01-10.04"/>
    <path class="cls-1" d="M450.96,97.97c.68-.39,1-.94,1.41-1.36,2.88-3,5.78-5.99,8.65-8.99,4.4-4.61,8.8-9.22,13.2-13.84.29-.31.53-.34.89-.15,2.54,1.33,5.09,2.65,7.64,3.96.71.36.21.65-.04.92-2.23,2.35-4.46,4.69-6.69,7.04-1.8,1.91-3.6,3.84-5.4,5.74-.35.37-.41.66-.16,1.14,2.69,5.29,5.34,10.61,8,15.91,2.84,5.63,5.68,11.26,8.52,16.88.49.97.44,1.03-.66,1.03-3.26,0-6.52-.01-9.78.01-.71,0-1.1-.24-1.42-.87-3.84-7.57-7.71-15.13-11.57-22.7-.04-.06-.07-.13-.1-.19-.74-1.4-1.17-1.61-2.71-1.33-.32.05-.51.26-.71.47-2.13,2.34-4.25,4.68-6.37,7.02-.69.76-1.34,1.55-2.06,2.27-.48.46-.65.96-.64,1.62.02,4.19,0,8.37,0,12.56,0,1.11-.02,1.14-1.15,1.14-3.01,0-6.03-.01-9.05.01-.69,0-.92-.22-.92-.92.02-23.19.02-46.38,0-69.57,0-.71.23-.92.92-.92,3.02.02,6.04,0,9.05,0,1.13,0,1.15.03,1.15,1.14,0,13.63,0,27.25,0,40.88v1.08Z"/>
    <path class="cls-1" d="M514.62,104.37c-5.84,0-11.68,0-17.52,0-1.21,0-1.23,0-.99,1.16.91,4.31,2.94,7.87,6.93,10.06,1.78.97,3.69,1.5,5.72,1.6,2.67.14,5.31-.07,7.8-1.14,1.95-.83,3.6-2.03,4.75-3.84.34-.55.66-.58,1.19-.29,2.49,1.32,4.99,2.62,7.52,3.88.66.33.7.63.33,1.22-2.44,4.07-5.94,6.94-10.34,8.62-6.15,2.34-12.41,2.55-18.65.34-6.96-2.47-11.62-7.37-14.04-14.27-2.8-7.99-2.59-15.98,1.14-23.63,3.69-7.54,9.86-11.88,18.23-12.93,4.72-.59,9.29-.01,13.56,2.17,6.26,3.21,10.1,8.37,12.06,15.04.62,2.09.87,4.23.92,6.41.03,1.56.11,3.11.09,4.67-.01.91-.04.95-.95.95-5.91,0-11.82,0-17.74,0M509.48,94.84c1.85,0,3.7,0,5.54,0,2.22,0,4.43,0,6.64,0,.49,0,.75-.09.56-.67-.76-2.28-1.95-4.3-3.79-5.87-2.92-2.47-6.29-3.46-10.09-3.1-5.63.53-9.26,3.63-11.34,8.74-.35.87-.32.89.66.89,3.93,0,7.88,0,11.82,0"/>
    <path class="cls-1" d="M567.17,104.37c-5.86,0-11.73,0-17.6,0-1.1,0-1.11,0-.88,1.11.8,3.93,2.55,7.29,6,9.55,2.12,1.39,4.48,2.09,7.02,2.17,2.53.08,5-.13,7.37-1.14,1.96-.84,3.64-2.05,4.8-3.88.32-.5.62-.56,1.13-.29,2.54,1.34,5.09,2.66,7.66,3.95.56.28.6.57.3,1.08-1.77,3.03-4.2,5.4-7.22,7.17-3.25,1.91-6.77,2.91-10.51,3.23-4.73.41-9.29-.2-13.58-2.28-6.2-3-10.18-7.97-12.18-14.48-2.14-6.99-2.02-14.01.78-20.81,3.51-8.51,9.91-13.49,19.09-14.63,5.77-.72,11.24.33,16.05,3.72,6.04,4.24,9.33,10.17,10.22,17.46.29,2.4.25,4.8.26,7.21,0,.69-.26.86-.91.86-5.93-.02-11.87-.01-17.81-.01M562.08,94.84c4.01,0,8.03,0,12.04,0,.8,0,.89-.11.63-.83-.66-1.85-1.57-3.57-2.97-4.97-3.01-3.01-6.67-4.23-10.89-3.83-5.56.53-9.19,3.57-11.27,8.63-.41.98-.38,1.01.65,1.01,3.94,0,7.87,0,11.81,0"/>
    <path class="cls-1" d="M694.11,100.98c.06,5.02-.89,9.66-3.09,13.99-2.73,5.4-6.89,9.27-12.66,11.23-4.8,1.63-9.68,1.7-14.57.3-3.95-1.13-7.29-3.2-10.03-6.23-3.38-3.72-5.34-8.16-6.2-13.08-1.08-6.19-.7-12.29,1.81-18.11,3.41-7.94,9.4-12.72,18-13.88,6.33-.85,12.21.51,17.34,4.46,4.18,3.22,6.74,7.54,8.21,12.55.84,2.91,1.25,5.89,1.2,8.76M683.71,100.39c.07-1.06-.15-2.52-.46-3.97-.68-3.26-2.11-6.11-4.75-8.23-6.11-4.91-17.12-3.41-20.16,6.55-.95,3.12-1.09,6.3-.71,9.52.28,2.44.94,4.78,2.29,6.86,2.62,4.04,6.41,5.94,11.18,5.75,5.1-.19,8.77-2.71,10.98-7.31,1.32-2.76,1.66-5.72,1.63-9.18"/>
    <path class="cls-1" d="M427.8,65.97h6.68s0,1.74,0,1.74h-6.49c-1.7,0-2.54.66-2.54,1.99,0,1.62,1.25,2.53,3,2.53h6.04s0,1.74,0,1.74h-6.45c-1.7,0-2.58.68-2.58,1.97,0,1.72,1.46,2.54,3.32,2.54h5.72s0,1.75,0,1.75h-10.33s0-1.68,0-1.68h1.01v-.45c-.8-.51-1.28-1.32-1.28-2.63s.45-2.17,1.38-2.73v-.45c-.92-.64-1.38-1.62-1.38-2.91,0-2.38,1.55-3.4,3.92-3.4"/>
    <polygon class="cls-1" points="438.59 61.75 433.52 59.62 424.15 64.02 424.15 62.16 430.96 59 430.96 58.49 424.15 55.62 424.15 53.79 438.59 59.98 438.59 61.75"/>
  </g>
</svg>