<svg width="28" height="29" viewBox="0 0 28 29" fill="none" xmlns="http://www.w3.org/2000/svg">
<path d="M26.2325 10.9073C25.7612 10.4148 25.2738 9.90731 25.09 9.46106C24.92 9.05231 24.91 8.37481 24.9 7.71856C24.8813 6.49856 24.8612 5.11606 23.9 4.15481C22.9387 3.19356 21.5562 3.17356 20.3363 3.15481C19.68 3.14481 19.0025 3.13481 18.5938 2.96481C18.1488 2.78106 17.64 2.29356 17.1475 1.82231C16.285 0.993559 15.305 0.0548096 14 0.0548096C12.695 0.0548096 11.7162 0.993559 10.8525 1.82231C10.36 2.29356 9.8525 2.78106 9.40625 2.96481C9 3.13481 8.32 3.14481 7.66375 3.15481C6.44375 3.17356 5.06125 3.19356 4.1 4.15481C3.13875 5.11606 3.125 6.49856 3.1 7.71856C3.09 8.37481 3.08 9.05231 2.91 9.46106C2.72625 9.90606 2.23875 10.4148 1.7675 10.9073C0.93875 11.7711 0 12.7498 0 14.0548C0 15.3598 0.93875 16.3386 1.7675 17.2023C2.23875 17.6948 2.72625 18.2023 2.91 18.6486C3.08 19.0573 3.09 19.7348 3.1 20.3911C3.11875 21.6111 3.13875 22.9936 4.1 23.9548C5.06125 24.9161 6.44375 24.9361 7.66375 24.9548C8.32 24.9648 8.9975 24.9748 9.40625 25.1448C9.85125 25.3286 10.36 25.8161 10.8525 26.2873C11.715 27.1161 12.695 28.0548 14 28.0548C15.305 28.0548 16.2837 27.1161 17.1475 26.2873C17.64 25.8161 18.1475 25.3286 18.5938 25.1448C19.0025 24.9748 19.68 24.9648 20.3363 24.9548C21.5562 24.9361 22.9387 24.9161 23.9 23.9548C24.8612 22.9936 24.8813 21.6111 24.9 20.3911C24.91 19.7348 24.92 19.0573 25.09 18.6486C25.2738 18.2036 25.7612 17.6948 26.2325 17.2023C27.0613 16.3386 28 15.3598 28 14.0548C28 12.7498 27.0613 11.7711 26.2325 10.9073ZM24.7887 15.8186C24.19 16.4436 23.57 17.0898 23.2412 17.8836C22.9262 18.6461 22.9125 19.5173 22.9 20.3611C22.8875 21.2361 22.8738 22.1523 22.485 22.5398C22.0963 22.9273 21.1862 22.9423 20.3062 22.9548C19.4625 22.9673 18.5913 22.9811 17.8288 23.2961C17.035 23.6248 16.3888 24.2448 15.7638 24.8436C15.1388 25.4423 14.5 26.0548 14 26.0548C13.5 26.0548 12.8562 25.4398 12.2362 24.8436C11.6163 24.2473 10.965 23.6248 10.1713 23.2961C9.40875 22.9811 8.5375 22.9673 7.69375 22.9548C6.81875 22.9423 5.9025 22.9286 5.515 22.5398C5.1275 22.1511 5.1125 21.2411 5.1 20.3611C5.0875 19.5173 5.07375 18.6461 4.75875 17.8836C4.43 17.0898 3.81 16.4436 3.21125 15.8186C2.6125 15.1936 2 14.5548 2 14.0548C2 13.5548 2.615 12.9123 3.21125 12.2911C3.8075 11.6698 4.43 11.0198 4.75875 10.2261C5.07375 9.46356 5.0875 8.59231 5.1 7.74856C5.1125 6.87356 5.12625 5.95731 5.515 5.56981C5.90375 5.18231 6.81375 5.16731 7.69375 5.15481C8.5375 5.14231 9.40875 5.12856 10.1713 4.81356C10.965 4.48481 11.6112 3.86481 12.2362 3.26606C12.8612 2.66731 13.5 2.05481 14 2.05481C14.5 2.05481 15.1438 2.66981 15.7638 3.26606C16.3838 3.86231 17.035 4.48481 17.8288 4.81356C18.5913 5.12856 19.4625 5.14231 20.3062 5.15481C21.1812 5.16731 22.0975 5.18106 22.485 5.56981C22.8725 5.95856 22.8875 6.86856 22.9 7.74856C22.9125 8.59231 22.9262 9.46356 23.2412 10.2261C23.57 11.0198 24.19 11.6661 24.7887 12.2911C25.3875 12.9161 26 13.5548 26 14.0548C26 14.5548 25.385 15.1973 24.7887 15.8186ZM13 10.0548C13 9.46147 12.8241 8.88145 12.4944 8.3881C12.1648 7.89475 11.6962 7.51023 11.1481 7.28317C10.5999 7.05611 9.99667 6.9967 9.41473 7.11245C8.83279 7.22821 8.29824 7.51393 7.87868 7.93349C7.45912 8.35305 7.1734 8.8876 7.05764 9.46954C6.94189 10.0515 7.0013 10.6547 7.22836 11.2029C7.45542 11.751 7.83994 12.2196 8.33329 12.5492C8.82664 12.8789 9.40666 13.0548 10 13.0548C10.7956 13.0548 11.5587 12.7387 12.1213 12.1761C12.6839 11.6135 13 10.8505 13 10.0548ZM9 10.0548C9 9.85703 9.05865 9.66369 9.16853 9.49924C9.27841 9.33479 9.43459 9.20662 9.61732 9.13093C9.80004 9.05524 10.0011 9.03544 10.1951 9.07402C10.3891 9.11261 10.5673 9.20785 10.7071 9.3477C10.847 9.48756 10.9422 9.66574 10.9808 9.85972C11.0194 10.0537 10.9996 10.2548 10.9239 10.4375C10.8482 10.6202 10.72 10.7764 10.5556 10.8863C10.3911 10.9962 10.1978 11.0548 10 11.0548C9.73478 11.0548 9.48043 10.9495 9.29289 10.7619C9.10536 10.5744 9 10.32 9 10.0548ZM18 15.0548C17.4067 15.0548 16.8266 15.2308 16.3333 15.5604C15.8399 15.89 15.4554 16.3586 15.2284 16.9068C15.0013 17.4549 14.9419 18.0581 15.0576 18.6401C15.1734 19.222 15.4591 19.7566 15.8787 20.1761C16.2982 20.5957 16.8328 20.8814 17.4147 20.9972C17.9967 21.1129 18.5999 21.0535 19.1481 20.8264C19.6962 20.5994 20.1648 20.2149 20.4944 19.7215C20.8241 19.2282 21 18.6482 21 18.0548C21 17.2592 20.6839 16.4961 20.1213 15.9335C19.5587 15.3709 18.7956 15.0548 18 15.0548ZM18 19.0548C17.8022 19.0548 17.6089 18.9962 17.4444 18.8863C17.28 18.7764 17.1518 18.6202 17.0761 18.4375C17.0004 18.2548 16.9806 18.0537 17.0192 17.8597C17.0578 17.6657 17.153 17.4876 17.2929 17.3477C17.4327 17.2078 17.6109 17.1126 17.8049 17.074C17.9989 17.0354 18.2 17.0552 18.3827 17.1309C18.5654 17.2066 18.7216 17.3348 18.8315 17.4992C18.9414 17.6637 19 17.857 19 18.0548C19 18.32 18.8946 18.5744 18.7071 18.7619C18.5196 18.9495 18.2652 19.0548 18 19.0548ZM19.7075 9.76231L9.7075 19.7623C9.61459 19.8552 9.50429 19.9289 9.3829 19.9792C9.2615 20.0295 9.1314 20.0554 9 20.0554C8.8686 20.0554 8.7385 20.0295 8.6171 19.9792C8.49571 19.9289 8.38541 19.8552 8.2925 19.7623C8.19959 19.6694 8.12589 19.5591 8.07561 19.4377C8.02532 19.3163 7.99944 19.1862 7.99944 19.0548C7.99944 18.9234 8.02532 18.7933 8.07561 18.6719C8.12589 18.5505 8.19959 18.4402 8.2925 18.3473L18.2925 8.34731C18.3854 8.2544 18.4957 8.1807 18.6171 8.13042C18.7385 8.08013 18.8686 8.05425 19 8.05425C19.1314 8.05425 19.2615 8.08013 19.3829 8.13042C19.5043 8.1807 19.6146 8.2544 19.7075 8.34731C19.8004 8.44022 19.8741 8.55052 19.9244 8.67191C19.9747 8.79331 20.0006 8.92341 20.0006 9.05481C20.0006 9.1862 19.9747 9.31631 19.9244 9.43771C19.8741 9.5591 19.8004 9.6694 19.7075 9.76231Z" fill="black"/>
</svg>
