<svg width="18" height="29" viewBox="0 0 18 29" fill="none" xmlns="http://www.w3.org/2000/svg">
<path d="M15 0.799927H3C2.20435 0.799927 1.44129 1.116 0.87868 1.67861C0.316071 2.24122 0 3.00428 0 3.79993V25.7999C0 26.5956 0.316071 27.3586 0.87868 27.9212C1.44129 28.4839 2.20435 28.7999 3 28.7999H15C15.7956 28.7999 16.5587 28.4839 17.1213 27.9212C17.6839 27.3586 18 26.5956 18 25.7999V3.79993C18 3.00428 17.6839 2.24122 17.1213 1.67861C16.5587 1.116 15.7956 0.799927 15 0.799927ZM16 25.7999C16 26.0651 15.8946 26.3195 15.7071 26.507C15.5196 26.6946 15.2652 26.7999 15 26.7999H3C2.73478 26.7999 2.48043 26.6946 2.29289 26.507C2.10536 26.3195 2 26.0651 2 25.7999V3.79993C2 3.53471 2.10536 3.28036 2.29289 3.09282C2.48043 2.90528 2.73478 2.79993 3 2.79993H15C15.2652 2.79993 15.5196 2.90528 15.7071 3.09282C15.8946 3.28036 16 3.53471 16 3.79993V25.7999ZM10.5 6.29993C10.5 6.5966 10.412 6.88661 10.2472 7.13328C10.0824 7.37996 9.84811 7.57221 9.57402 7.68575C9.29994 7.79928 8.99834 7.82898 8.70736 7.7711C8.41639 7.71323 8.14912 7.57037 7.93934 7.36059C7.72956 7.15081 7.5867 6.88353 7.52882 6.59256C7.47094 6.30159 7.50065 5.99999 7.61418 5.7259C7.72771 5.45181 7.91997 5.21754 8.16665 5.05272C8.41332 4.8879 8.70333 4.79993 9 4.79993C9.39782 4.79993 9.77936 4.95796 10.0607 5.23927C10.342 5.52057 10.5 5.9021 10.5 6.29993Z" fill="black"/>
</svg>
